<?xml version="1.0" encoding="utf-8"?>
<!-- Generator: Adobe Illustrator 26.4.1, SVG Export Plug-In . SVG Version: 6.00 Build 0)  -->
<svg version="1.1" xmlns="http://www.w3.org/2000/svg" xmlns:xlink="http://www.w3.org/1999/xlink" x="0px" y="0px"
	 viewBox="0 0 77 68" style="enable-background:new 0 0 77 68;" xml:space="preserve">
<style type="text/css">
	.st0{fill:#124734;}
	.st1{fill:#FFFFFF;}
	.st2{font-family:'HollowCity';}
	.st3{font-size:13.9548px;}
</style>
<g id="Vrstva_1">
	<g>
		<g>
			<g>
				<g>
					<path class="st0" d="M-187.93,197.85c0.1,0.27,0.24,0.5,0.4,0.68c0.16,0.18,0.36,0.31,0.58,0.39c0.22,0.08,0.47,0.09,0.74,0.04
						c0.29-0.06,0.54-0.16,0.76-0.3c0.21-0.14,0.37-0.29,0.48-0.46c0.03-0.05,0.05-0.09,0.06-0.13c0.01-0.04,0.02-0.1,0.02-0.2
						l0.05-0.91c0-0.07-0.01-0.11-0.03-0.13c-0.02-0.02-0.04-0.03-0.05-0.03c-0.03,0.01-0.07,0.04-0.1,0.09
						c-0.1,0.18-0.24,0.33-0.42,0.46c-0.18,0.13-0.38,0.21-0.59,0.25c-0.28,0.06-0.51-0.01-0.66-0.18
						c-0.16-0.18-0.26-0.41-0.29-0.71c-0.02-0.17-0.03-0.35-0.03-0.55c0.5-0.11,0.91-0.25,1.25-0.43c0.33-0.18,0.59-0.39,0.78-0.62
						c0.19-0.23,0.32-0.49,0.38-0.76c0.07-0.27,0.08-0.55,0.04-0.84c-0.05-0.35-0.18-0.63-0.41-0.85c-0.23-0.22-0.54-0.29-0.95-0.22
						c-0.42,0.07-0.78,0.26-1.08,0.55c-0.31,0.3-0.56,0.66-0.75,1.09c-0.19,0.43-0.32,0.9-0.38,1.4c-0.07,0.51-0.07,1,0,1.49
						C-188.1,197.29-188.03,197.58-187.93,197.85z M-186.64,194.03c0.18-0.3,0.4-0.47,0.67-0.51c0.12-0.02,0.21,0,0.27,0.07
						c0.06,0.07,0.1,0.17,0.12,0.31c0.01,0.12,0,0.25-0.04,0.38c-0.04,0.13-0.12,0.25-0.23,0.37c-0.11,0.12-0.26,0.23-0.44,0.33
						c-0.19,0.1-0.42,0.18-0.7,0.24C-186.94,194.72-186.82,194.33-186.64,194.03z"/>
				</g>
				<g>
					<path class="st0" d="M-195.33,200.54c-0.01,0.05,0,0.07,0.02,0.09c0.02,0.01,0.04,0.02,0.06,0.01l1.16-0.24
						c0.01-0.01,0.03-0.02,0.06-0.04c0.02-0.03,0.03-0.06,0.02-0.09l0.1-2.66c0.03-0.78,0.14-1.39,0.33-1.85
						c0.19-0.46,0.4-0.7,0.62-0.75c0.23-0.04,0.38,0.15,0.45,0.57c0.02,0.2,0.02,0.46,0,0.77l-0.12,3.63
						c-0.01,0.08,0.01,0.11,0.06,0.1l1.15-0.24c0.01,0,0.03-0.02,0.05-0.05c0.02-0.03,0.03-0.06,0.03-0.08l0.1-2.62
						c0.03-0.76,0.13-1.36,0.31-1.82c0.18-0.45,0.38-0.7,0.6-0.74c0.24-0.04,0.39,0.14,0.44,0.55c0.01,0.11,0.02,0.23,0.02,0.35
						c0,0.13,0,0.26-0.02,0.41l-0.08,2.35c-0.03,1.26,0.71,1.64,1.2,1.53c0.04-0.01,0.08-0.03,0.09-0.06
						c0.02-0.03,0.03-0.06,0.03-0.08c0,0-0.1-0.56-0.08-0.87c0.02-0.31,0.1-3.03,0.1-3.03c0.01-0.26,0.02-0.5,0.02-0.73
						c0-0.23-0.02-0.46-0.04-0.68c-0.07-0.45-0.2-0.77-0.42-0.96c-0.21-0.19-0.46-0.26-0.76-0.21c-0.32,0.06-0.61,0.27-0.89,0.63
						c-0.27,0.37-0.48,0.83-0.61,1.37c0-0.15-0.02-0.3-0.04-0.43c-0.08-0.43-0.22-0.73-0.42-0.91c-0.19-0.17-0.41-0.24-0.64-0.2
						c-0.34,0.06-0.66,0.28-0.95,0.65c-0.3,0.38-0.52,0.9-0.67,1.57c0.01-0.14,0.01-0.29,0.01-0.46c0-0.17,0-0.32,0.01-0.48
						c0-0.15,0-0.29,0-0.41c0-0.12-0.01-0.21-0.02-0.27c-0.01-0.07-0.04-0.11-0.08-0.1l-0.98,0.17c-0.04,0.01-0.06,0.04-0.06,0.11
						c-0.01,0.05,0,0.2,0.01,0.46c0.01,0.26,0.01,0.59,0,0.98L-195.33,200.54z"/>
				</g>
				<g>
					<path class="st0" d="M-200.42,199.55c0.1,0.68,0.3,1.2,0.62,1.56c0.32,0.36,0.69,0.49,1.12,0.41c0.33-0.07,0.64-0.26,0.93-0.59
						c0.29-0.32,0.49-0.81,0.6-1.46c0,0.11-0.01,0.23-0.01,0.38c0,0.15,0.03,0.58,0.34,0.88c0.24,0.23,0.82,0.15,0.82,0.15
						c0.05-0.01,0.08-0.06,0.08-0.13c0.01-0.05-0.05-0.3-0.08-0.58c-0.02-0.28-0.03-0.66,0-1.14l0.19-4.52
						c0.01-0.05,0-0.08-0.02-0.1c-0.02-0.02-0.05-0.02-0.07-0.02l-1.13,0.19c-0.06,0.01-0.08,0.06-0.08,0.15l-0.01,1.17
						c-0.04-0.2-0.09-0.38-0.16-0.55c-0.07-0.17-0.16-0.32-0.27-0.44c-0.11-0.12-0.24-0.21-0.39-0.27c-0.15-0.06-0.32-0.07-0.5-0.04
						c-0.4,0.07-0.74,0.27-1.02,0.6c-0.28,0.34-0.51,0.74-0.67,1.22c-0.16,0.48-0.27,0.99-0.33,1.54
						C-200.5,198.52-200.49,199.05-200.42,199.55z M-199.06,198.22c0.01-0.36,0.05-0.72,0.12-1.07c0.07-0.35,0.17-0.65,0.31-0.91
						c0.14-0.26,0.31-0.41,0.53-0.45c0.22-0.04,0.4,0.02,0.54,0.17c0.14,0.15,0.23,0.39,0.28,0.72c0.03,0.26,0.05,0.54,0.04,0.85
						l-0.02,0.43c-0.02,0.73-0.13,1.26-0.31,1.6c-0.18,0.34-0.4,0.54-0.65,0.59c-0.2,0.04-0.37-0.03-0.51-0.21
						c-0.14-0.18-0.23-0.44-0.28-0.78C-199.05,198.9-199.07,198.59-199.06,198.22z"/>
				</g>
				<g>
					<path class="st0" d="M-204.15,202.34c0,0.08,0.03,0.12,0.08,0.1l1.27-0.26c0.02,0,0.03-0.02,0.06-0.05
						c0.02-0.03,0.03-0.06,0.03-0.09l0.13-2.89c0.03-0.79,0.13-1.36,0.29-1.74c0.16-0.37,0.34-0.57,0.54-0.61
						c0.11-0.02,0.18-0.01,0.23,0.03c0.04,0.04,0.09,0.09,0.13,0.14c0.04,0.05,0.08,0.1,0.13,0.14c0.05,0.04,0.13,0.05,0.24,0.03
						c0.1-0.02,0.2-0.07,0.28-0.16c0.08-0.09,0.15-0.2,0.2-0.32c0.05-0.13,0.08-0.27,0.11-0.42c0.02-0.15,0.02-0.31,0-0.46
						c-0.03-0.23-0.1-0.41-0.23-0.55c-0.13-0.13-0.31-0.18-0.54-0.14c-0.34,0.06-0.64,0.3-0.92,0.73c-0.27,0.43-0.48,0.98-0.62,1.66
						c0.01-0.15,0.01-0.3,0.02-0.48c0.01-0.17,0.01-0.34,0.01-0.5c0-0.16-0.01-0.31-0.01-0.45c-0.01-0.13-0.01-0.25-0.02-0.34
						c0-0.03-0.01-0.05-0.03-0.08c-0.01-0.02-0.03-0.03-0.06-0.03l-1.06,0.18c-0.02,0-0.04,0.02-0.05,0.05
						c-0.01,0.03-0.01,0.06-0.02,0.09c-0.01,0.05-0.01,0.2,0.01,0.46c0.01,0.26,0.01,0.6,0,1.02L-204.15,202.34z"/>
				</g>
				<g>
					<path class="st0" d="M-215.55,202.19c0.06,0.37,0.16,0.72,0.3,1.03c0.14,0.31,0.32,0.57,0.54,0.78
						c0.22,0.21,0.47,0.35,0.76,0.44c0.29,0.09,0.62,0.09,0.99,0.02c0.56-0.12,1.03-0.36,1.4-0.73c0.37-0.37,0.67-0.8,0.88-1.28
						c0.22-0.49,0.36-1.01,0.42-1.55c0.06-0.55,0.06-1.06-0.01-1.53c-0.05-0.37-0.15-0.7-0.28-1.01c-0.13-0.31-0.3-0.56-0.51-0.78
						c-0.21-0.21-0.45-0.37-0.74-0.46c-0.28-0.09-0.61-0.11-0.96-0.05c-0.56,0.09-1.03,0.33-1.42,0.69c-0.39,0.36-0.7,0.8-0.93,1.29
						c-0.23,0.5-0.38,1.02-0.45,1.58C-215.62,201.18-215.62,201.7-215.55,202.19z M-213.95,201.02c0.02-0.4,0.07-0.79,0.16-1.15
						c0.09-0.36,0.22-0.69,0.39-0.96c0.17-0.27,0.38-0.43,0.64-0.48c0.25-0.05,0.45,0.03,0.6,0.23c0.15,0.2,0.25,0.48,0.31,0.85
						c0.05,0.33,0.06,0.7,0.04,1.1c-0.02,0.4-0.08,0.78-0.17,1.14c-0.09,0.36-0.21,0.66-0.38,0.92c-0.16,0.25-0.36,0.41-0.6,0.45
						c-0.26,0.05-0.47-0.02-0.63-0.21c-0.16-0.19-0.26-0.47-0.3-0.82C-213.94,201.78-213.96,201.43-213.95,201.02z"/>
				</g>
				<g>
					<path class="st0" d="M-227.02,207.02l0.06-1.34c0.01-0.06,0-0.1-0.03-0.12c-0.03-0.01-0.07,0-0.11,0.04
						c-0.15,0.12-0.31,0.2-0.46,0.23c-0.29,0.06-0.49,0.02-0.62-0.13c-0.13-0.14-0.18-0.41-0.16-0.8c0,0,0.11-2.17,0.21-4.3
						c2.29-0.72,5.98-2.8,5.72-6.83c-0.28-4.27-3.89-6.76-9.27-6.6c-5.21,0.16-9.09,4.15-8.08,9.46c0.74,3.89,2.38,5.51,4.66,8.01
						c2.23,2.46,4.7,5.11,4.78,6.7c0.08,1.59-0.97,2.24-2.14,2.16c-2-0.14-4.68-2.32-4.68-2.32l0.14,3.07c0,0,2.81,1.13,4.75,0.95
						c2.27-0.21,3.76-1.46,3.65-3.75c-0.12-2.44-3.06-5.46-4.94-7.9c-1.88-2.44-3.12-4.62-3.47-7.13c-0.6-4.23,0.83-7.67,5.65-7.95
						c3.67-0.22,6.08,2.16,6.48,5.5c0.38,3.14-1.23,5.04-3.21,5.79c0.08-1.64,0.15-3.07,0.16-3.21c0-0.1-0.04-0.15-0.11-0.14
						l-1.61,0.25c-0.07,0.01-0.11,0.07-0.11,0.17c-0.01,0.06-0.08,1.57-0.16,3.29c-0.85,0.04-1.57-0.09-1.57-0.09l-0.12,0.81
						c0,0,0.85,0.09,1.65,0.07c-0.1,2.09-0.2,4.19-0.2,4.19c-0.05,0.93,0.12,1.6,0.5,2.01c0.37,0.41,0.89,0.55,1.55,0.41
						c0.29-0.06,0.6-0.17,0.95-0.33C-227.09,207.17-227.05,207.11-227.02,207.02z"/>
				</g>
				<g>
					<path class="st0" d="M-178.17,203.06c-0.03-0.23-0.11-0.44-0.22-0.65c-0.35-0.64-1.09-1.33-2.01-1.86
						c-0.01-0.06-0.02-0.13-0.03-0.2c-0.14-1.37-0.1-3.21-0.05-4.77c0-0.01,0.01-0.03,0.01-0.04l0.06-1.62
						c0.01-0.21,0.01-0.4,0-0.56c-0.01-0.16-0.02-0.33-0.05-0.5c-0.06-0.46-0.19-0.78-0.4-0.96c-0.21-0.18-0.45-0.25-0.71-0.21
						c-0.32,0.06-0.63,0.27-0.91,0.62c-0.29,0.36-0.49,0.85-0.62,1.46c0-0.13,0.01-0.27,0.01-0.43c0-0.15,0.01-0.3,0.01-0.44
						c0-0.14,0-0.26,0-0.37c0-0.11-0.01-0.19-0.02-0.25c-0.01-0.07-0.04-0.11-0.07-0.1l-0.87,0.15c-0.05,0.01-0.07,0.04-0.05,0.11
						c-0.01,0.04-0.01,0.19,0,0.43c0.01,0.24,0.01,0.55-0.01,0.93l-0.15,4.46c-0.01,0.04,0,0.07,0.02,0.08
						c0.02,0.01,0.04,0.02,0.05,0.01l1.04-0.21c0.02,0,0.04-0.02,0.05-0.05c0.02-0.03,0.02-0.05,0.02-0.08l0.09-2.52
						c0.03-0.75,0.13-1.34,0.31-1.76c0.18-0.42,0.38-0.65,0.62-0.69c0.11-0.02,0.21,0.01,0.29,0.09c0.08,0.08,0.14,0.22,0.16,0.42
						c0,0,0,0.01,0,0.01c-0.01,1.81-0.21,4.08,0.11,6.57c-0.78-0.22-1.55-0.18-2.51-0.06c-0.07,0-0.13,0.02-0.2,0.03
						c-0.86,0.14-12.99,2.94-24.16,5.54c0.03-0.7,0.06-1.37,0.07-1.68c0.02-0.7,0.03-1.39,0.02-2.05c0.03,0.21,0.09,0.4,0.17,0.57
						c0.08,0.17,0.18,0.32,0.29,0.43c0.12,0.12,0.25,0.2,0.41,0.25c0.16,0.05,0.34,0.06,0.53,0.01c0.43-0.09,0.8-0.31,1.1-0.67
						c0.3-0.36,0.54-0.78,0.71-1.28c0.18-0.5,0.29-1.03,0.34-1.6c0.05-0.57,0.04-1.11-0.03-1.63c-0.09-0.7-0.31-1.23-0.65-1.59
						c-0.34-0.37-0.74-0.51-1.2-0.43c-0.4,0.07-0.75,0.28-1.04,0.63c-0.3,0.35-0.51,0.86-0.63,1.51c0.01-0.28,0.02-0.57,0.01-0.87
						c-0.01-0.29-0.02-0.5-0.03-0.61c-0.01-0.08-0.05-0.12-0.09-0.11l-1.11,0.19c-0.06,0.01-0.09,0.06-0.08,0.14
						c-0.01,0.06,0,0.24,0.02,0.53c0.02,0.3,0.02,0.7-0.01,1.21l-0.32,7.39c-9.23,2.14-17.59,4.09-17.59,4.09s0.32,0.82,0.34,1.47
						c0.03,0.8-0.15,1.41-0.15,1.41s39.58-10.99,43.67-12.14c0.76-0.21,1.51-0.18,2.31,0.08c0.22,0.47,0.39,0.84,0.61,1.19
						c0.5,0.81,1.2,1.39,1.86,1.61C-178.38,203.87-178.08,203.56-178.17,203.06z M-208.03,199.75c0.03-0.77,0.14-1.34,0.34-1.71
						c0.2-0.37,0.43-0.58,0.7-0.63c0.22-0.04,0.41,0.04,0.55,0.22c0.15,0.19,0.25,0.45,0.3,0.8c0.03,0.27,0.05,0.6,0.04,0.98
						c-0.01,0.38-0.05,0.75-0.12,1.11c-0.07,0.37-0.18,0.68-0.33,0.96c-0.15,0.27-0.34,0.43-0.58,0.48c-0.5,0.1-0.79-0.19-0.88-0.87
						c-0.03-0.26-0.05-0.56-0.04-0.88L-208.03,199.75z M-179.01,203.01c-0.3-0.14-0.47-0.3-0.75-0.68
						c-0.18-0.25-0.36-0.58-0.48-0.99c0.36,0.18,0.75,0.53,1.11,0.97c0.12,0.14,0.21,0.28,0.31,0.49
						C-178.75,202.97-178.79,203.12-179.01,203.01z"/>
				</g>
				<g>
					<path class="st0" d="M-222.85,199.33c-0.14-0.14-0.3-0.24-0.49-0.3c-0.19-0.06-0.4-0.07-0.63-0.03
						c-0.51,0.09-0.94,0.32-1.29,0.7c-0.36,0.38-0.64,0.85-0.85,1.39c-0.21,0.54-0.35,1.12-0.41,1.74
						c-0.07,0.62-0.05,1.22,0.04,1.78c0.12,0.76,0.38,1.34,0.78,1.74c0.4,0.4,0.87,0.54,1.42,0.43c0.41-0.09,0.8-0.31,1.17-0.69
						c0.37-0.37,0.62-0.92,0.76-1.65c0,0.12-0.01,0.26-0.01,0.43c0,0.16,0.03,0.65,0.43,0.98c0.31,0.25,1.04,0.15,1.04,0.15
						c0.07-0.01,0.1-0.06,0.1-0.15c0.01-0.06-0.07-0.33-0.1-0.65c-0.03-0.31-0.03-0.74-0.01-1.27l0.24-5.07
						c0.01-0.05,0-0.09-0.03-0.11c-0.03-0.02-0.06-0.03-0.09-0.02l-1.42,0.25c-0.07,0.01-0.1,0.07-0.1,0.17l-0.01,1.31
						c-0.05-0.22-0.11-0.42-0.2-0.62C-222.6,199.63-222.71,199.46-222.85,199.33z M-222.51,202.74c-0.03,0.82-0.16,1.42-0.39,1.81
						c-0.23,0.39-0.51,0.61-0.82,0.68c-0.26,0.05-0.47-0.02-0.64-0.22c-0.17-0.2-0.29-0.49-0.35-0.87
						c-0.05-0.29-0.07-0.64-0.06-1.05c0.01-0.41,0.06-0.81,0.14-1.2c0.09-0.39,0.22-0.73,0.39-1.03c0.17-0.3,0.4-0.47,0.67-0.52
						c0.27-0.05,0.5,0.01,0.68,0.18c0.18,0.17,0.29,0.43,0.35,0.8c0.04,0.29,0.06,0.61,0.05,0.96L-222.51,202.74z"/>
				</g>
				<g>
					<path class="st0" d="M-219.81,205.54c0,0.09,0.03,0.12,0.1,0.11l1.46-0.3c0.02,0,0.04-0.02,0.07-0.06
						c0.03-0.04,0.04-0.07,0.03-0.09l0.15-3.1c0.04-0.84,0.15-1.46,0.34-1.87c0.18-0.4,0.39-0.62,0.62-0.66
						c0.12-0.02,0.21-0.01,0.26,0.03c0.05,0.05,0.1,0.09,0.15,0.15c0.04,0.06,0.1,0.1,0.15,0.15c0.06,0.04,0.15,0.05,0.28,0.03
						c0.12-0.02,0.23-0.08,0.32-0.18c0.09-0.09,0.17-0.21,0.23-0.35c0.06-0.14,0.1-0.29,0.12-0.46c0.02-0.16,0.02-0.33,0-0.5
						c-0.03-0.24-0.12-0.44-0.27-0.58c-0.15-0.14-0.36-0.19-0.62-0.15c-0.39,0.07-0.74,0.33-1.06,0.79
						c-0.32,0.46-0.55,1.06-0.72,1.79c0.01-0.16,0.01-0.33,0.02-0.51c0.01-0.18,0.01-0.36,0-0.54c0-0.17-0.01-0.33-0.01-0.48
						c-0.01-0.15-0.01-0.27-0.02-0.36c-0.01-0.03-0.02-0.06-0.03-0.08c-0.01-0.03-0.04-0.04-0.06-0.03l-1.22,0.21
						c-0.03,0-0.05,0.02-0.06,0.05c-0.01,0.03-0.01,0.06-0.02,0.09c-0.01,0.05-0.01,0.22,0.01,0.5c0.01,0.28,0.01,0.65,0,1.1
						L-219.81,205.54z"/>
				</g>
			</g>
			<g>
				<path class="st0" d="M-179.38,189.85c0.47,0,0.83,0.37,0.83,0.83c0,0.47-0.36,0.84-0.84,0.84c-0.48,0-0.85-0.37-0.85-0.84
					C-180.23,190.22-179.86,189.85-179.38,189.85L-179.38,189.85z M-179.39,190c-0.38,0-0.66,0.31-0.66,0.69
					c0,0.39,0.29,0.69,0.67,0.69c0.37,0.01,0.65-0.3,0.65-0.69C-178.73,190.31-179.01,190-179.39,190L-179.39,190z M-179.54,191.15
					h-0.16v-0.87c0.09-0.01,0.18-0.03,0.3-0.03c0.15,0,0.22,0.03,0.27,0.07c0.05,0.04,0.09,0.11,0.09,0.19c0,0.1-0.08,0.17-0.17,0.2
					v0.01c0.07,0.03,0.11,0.1,0.14,0.21c0.03,0.13,0.05,0.18,0.07,0.21h-0.17c-0.03-0.03-0.05-0.11-0.07-0.22
					c-0.02-0.1-0.08-0.14-0.2-0.14h-0.11V191.15z M-179.54,190.65h0.11c0.12,0,0.23-0.04,0.23-0.14c0-0.08-0.06-0.15-0.21-0.15
					c-0.06,0-0.1,0-0.12,0.01V190.65z"/>
			</g>
		</g>
		<path class="st0" d="M-189.9,204.76l-32.33,8.98c-0.32,0.09-0.58,0.16-0.78,0.22v17.75c0,2.06,1.67,3.73,3.73,3.73h26.43
			c2.06,0,3.73-1.67,3.73-3.73v-27.16C-189.36,204.61-189.62,204.68-189.9,204.76z M-189.9,231.7c0,1.63-1.32,2.95-2.95,2.95h-26.43
			c-1.63,0-2.95-1.32-2.95-2.95v-17.13l32.33-8.98V231.7z"/>
		<g>
			<path class="st0" d="M-217.41,219.03c0.34-0.39,1.62-0.81,1.62-0.81s-1.28-0.42-1.62-0.81c-0.34,0.39-1.62,0.81-1.62,0.81
				S-217.76,218.64-217.41,219.03z"/>
			<path class="st0" d="M-195.1,219.03c0.34-0.39,1.62-0.81,1.62-0.81s-1.28-0.42-1.62-0.81c-0.34,0.39-1.62,0.81-1.62,0.81
				S-195.44,218.64-195.1,219.03z"/>
			<g>
				<path class="st0" d="M-211.49,221.98l-1.35-4.95l0.04,4.95h-1.43v-0.99h0.39v-6.16h-0.39v-0.99h1.53l1.24,4.68l-0.05-4.68h1.44
					v1.02h-0.39v7.11H-211.49z"/>
				<path class="st0" d="M-207.15,221.98l-0.2-1.93h-0.83l-0.21,1.93h-1.41v-0.99h0.43l0.93-7.14h1.35l0.91,7.14h0.43v0.99H-207.15z
					 M-208.04,219h0.53l-0.26-2.65L-208.04,219z"/>
				<path class="st0" d="M-205.15,220h1.06v1h0.57c0.27,0,0.35-0.09,0.35-0.4v-1.71c0-0.44-0.01-0.45-0.48-0.45h-0.39
					c-0.7,0-1.11-0.43-1.11-1.15v-2.33c0-0.32,0.11-0.6,0.3-0.82c0.21-0.22,0.43-0.29,0.84-0.29h1.81v1.95h-1.06v-0.96h-0.44
					c-0.31,0-0.38,0.07-0.38,0.4v1.69c0,0.34,0.07,0.41,0.38,0.41h0.58c0.31,0,0.56,0.11,0.76,0.32c0.21,0.23,0.27,0.44,0.27,0.89
					v2.37c0,0.32-0.13,0.61-0.35,0.82c-0.22,0.2-0.4,0.24-0.88,0.24h-1.82V220z M-204.03,212.23l0.45,0.65l0.45-0.65h0.79l-0.85,1.3
					h-0.79l-0.84-1.3H-204.03z"/>
				<path class="st0" d="M-201.47,221.98v-0.99h0.39v-6.16h-0.39v-0.99h3.33v2.1h-1.06v-1.11h-0.82v2.52h1.28v1h-1.28v2.63h0.86
					v-1.16h1.06v2.15H-201.47z"/>
				<path class="st0" d="M-217.81,232.1v-3.58h-0.89v3.58h-1.45v-0.99h0.39v-6.16h-0.39v-0.99h1.45v3.55h0.89v-3.55h1.44v0.99h-0.39
					v6.16h0.39v0.99H-217.81z"/>
				<path class="st0" d="M-212.48,231.11c0,0.6-0.41,1.02-0.99,1.02h-1.19c-0.62,0-1.01-0.41-1.01-1.07v-5.97
					c0-0.73,0.39-1.16,1.06-1.16h1.11c0.6,0,1.02,0.44,1.02,1.1V231.11z M-214.21,224.92c-0.32,0-0.4,0.1-0.4,0.43v5.35
					c0,0.35,0.06,0.45,0.28,0.45h0.43c0.28,0,0.35-0.09,0.35-0.43v-5.38c0-0.32-0.11-0.43-0.38-0.43H-214.21z"/>
				<path class="st0" d="M-211.75,230.11h1.06v1h0.57c0.27,0,0.35-0.09,0.35-0.4V229c0-0.44-0.01-0.45-0.48-0.45h-0.39
					c-0.7,0-1.11-0.43-1.11-1.15v-2.33c0-0.32,0.11-0.6,0.3-0.82c0.21-0.22,0.43-0.29,0.84-0.29h1.81v1.95h-1.06v-0.96h-0.44
					c-0.31,0-0.38,0.07-0.38,0.4v1.69c0,0.34,0.07,0.41,0.38,0.41h0.58c0.31,0,0.56,0.11,0.76,0.32c0.21,0.23,0.27,0.44,0.27,0.89
					v2.37c0,0.32-0.13,0.61-0.35,0.82c-0.22,0.2-0.4,0.24-0.88,0.24h-1.82V230.11z"/>
				<path class="st0" d="M-206.62,231.11h0.4v0.99h-1.86v-0.99h0.39v-6.16h-0.39v-0.99h2.27c0.67,0,1.09,0.4,1.09,1.05v2.34
					c0,0.66-0.44,1.11-1.08,1.11h-0.83V231.11z M-206.27,227.46c0.39,0,0.49-0.07,0.49-0.41v-1.65c0-0.37-0.07-0.45-0.37-0.45h-0.47
					v2.51H-206.27z"/>
				<path class="st0" d="M-200.84,231.11c0,0.6-0.41,1.02-0.99,1.02h-1.19c-0.61,0-1.01-0.41-1.01-1.07v-5.97
					c0-0.73,0.39-1.16,1.06-1.16h1.11c0.6,0,1.02,0.44,1.02,1.1V231.11z M-202.57,224.92c-0.32,0-0.4,0.1-0.4,0.43v5.35
					c0,0.35,0.06,0.45,0.28,0.45h0.43c0.28,0,0.35-0.09,0.35-0.43v-5.38c0-0.32-0.11-0.43-0.38-0.43H-202.57z"/>
				<path class="st0" d="M-200.16,231.11h0.39v-6.16h-0.39v-0.99h2.44c0.59,0,1.02,0.46,1.02,1.12V231c0,0.68-0.4,1.1-1.09,1.1
					h-2.37V231.11z M-198.16,231.11c0.33,0,0.39-0.07,0.39-0.45v-5.23c0-0.37-0.08-0.48-0.37-0.48h-0.57v6.16H-198.16z"/>
				<path class="st0" d="M-193.43,232.1l-0.2-1.93h-0.83l-0.21,1.93h-1.41v-0.99h0.43l0.93-7.14h1.35l0.91,7.14h0.43v0.99H-193.43z
					 M-194.32,229.11h0.53l-0.26-2.65L-194.32,229.11z"/>
			</g>
		</g>
	</g>
	<text transform="matrix(0.9909 -0.1348 0.1348 0.9909 -238.5679 254.4666)" class="st0 st2" style="font-size:17.0018px;">Machnác</text>
	<g>
		<path class="st0" d="M-181.85,232.53c-0.02-0.09,0-0.16,0.06-0.2c0.04-0.03,0.16-0.04,0.32-0.04c0.81,0.01,1.59-0.22,2.34-0.69
			c0.47-0.3,0.5-0.39,0.55-0.43c0.07-0.05,0.12-0.03,0.16,0.02c0.05,0.09,0.1,0.28,0.14,0.6c0.16,0.7,0.06,0.89-0.55,1.27
			c-0.69,0.43-1.3,0.62-2.42,0.44c-0.24-0.03-0.38-0.09-0.42-0.16C-181.74,233.25-181.76,232.93-181.85,232.53z"/>
	</g>
	<g>
		<g>
			<g>
				<g>
					<path class="st1" d="M55.88,12.47c0.08,0.22,0.19,0.41,0.33,0.56c0.13,0.15,0.29,0.26,0.47,0.32c0.18,0.07,0.38,0.08,0.6,0.03
						c0.24-0.05,0.45-0.13,0.62-0.24c0.18-0.11,0.31-0.24,0.39-0.38c0.02-0.04,0.04-0.08,0.05-0.11c0.01-0.03,0.02-0.09,0.02-0.16
						l0.04-0.74c0-0.05-0.01-0.09-0.02-0.11c-0.02-0.02-0.03-0.02-0.04-0.02c-0.03,0-0.05,0.03-0.08,0.08
						c-0.08,0.15-0.19,0.27-0.34,0.37c-0.15,0.11-0.31,0.18-0.48,0.21c-0.23,0.05-0.41,0-0.54-0.15c-0.13-0.15-0.21-0.34-0.24-0.58
						c-0.02-0.14-0.03-0.29-0.03-0.45c0.41-0.09,0.75-0.2,1.02-0.35c0.27-0.15,0.49-0.32,0.64-0.51c0.16-0.19,0.26-0.4,0.32-0.63
						c0.05-0.22,0.07-0.45,0.04-0.69c-0.04-0.29-0.15-0.52-0.34-0.7c-0.19-0.18-0.45-0.24-0.78-0.18c-0.34,0.06-0.64,0.21-0.89,0.45
						c-0.25,0.24-0.46,0.54-0.61,0.89c-0.15,0.35-0.26,0.74-0.31,1.15c-0.05,0.41-0.05,0.82,0,1.22
						C55.73,12.01,55.79,12.25,55.88,12.47z M56.93,9.33c0.15-0.24,0.33-0.38,0.55-0.42c0.1-0.02,0.17,0,0.22,0.06
						c0.05,0.06,0.08,0.14,0.1,0.25c0.01,0.1,0,0.2-0.03,0.31c-0.03,0.11-0.1,0.21-0.19,0.31c-0.09,0.1-0.21,0.19-0.36,0.27
						c-0.15,0.08-0.34,0.15-0.57,0.2C56.69,9.9,56.78,9.58,56.93,9.33z"/>
				</g>
				<g>
					<path class="st1" d="M49.8,14.68c-0.01,0.04,0,0.06,0.02,0.07c0.02,0.01,0.04,0.02,0.05,0.01l0.96-0.19
						c0.01,0,0.03-0.02,0.05-0.04c0.02-0.02,0.02-0.05,0.02-0.07l0.08-2.18c0.02-0.64,0.11-1.14,0.27-1.52
						c0.16-0.37,0.33-0.58,0.51-0.61c0.19-0.03,0.31,0.12,0.37,0.47c0.02,0.17,0.02,0.38,0,0.63l-0.09,2.98
						c-0.01,0.07,0.01,0.09,0.05,0.09l0.94-0.19c0.01,0,0.02-0.02,0.04-0.04c0.02-0.02,0.02-0.05,0.03-0.07l0.08-2.15
						c0.02-0.62,0.11-1.12,0.25-1.49c0.14-0.37,0.31-0.57,0.49-0.61c0.2-0.04,0.32,0.11,0.36,0.45c0.01,0.09,0.02,0.19,0.02,0.29
						c0,0.1,0,0.22-0.01,0.34l-0.06,1.93c-0.03,1.03,0.58,1.34,0.98,1.26c0.04-0.01,0.06-0.02,0.08-0.05
						c0.01-0.02,0.02-0.05,0.02-0.07c0,0-0.08-0.46-0.07-0.72c0.02-0.25,0.08-2.49,0.08-2.49c0.01-0.21,0.02-0.41,0.01-0.6
						c0-0.19-0.01-0.38-0.03-0.56c-0.05-0.37-0.17-0.64-0.34-0.79c-0.17-0.15-0.38-0.21-0.62-0.17c-0.26,0.05-0.5,0.22-0.73,0.52
						c-0.22,0.3-0.39,0.68-0.5,1.13c0-0.13-0.02-0.24-0.03-0.35c-0.07-0.35-0.18-0.6-0.34-0.74c-0.16-0.14-0.34-0.2-0.53-0.16
						c-0.28,0.05-0.54,0.23-0.78,0.54c-0.24,0.31-0.43,0.74-0.55,1.29c0-0.11,0-0.24,0.01-0.38c0-0.14,0-0.27,0-0.39
						c0-0.12,0-0.24,0-0.34c0-0.1-0.01-0.17-0.02-0.22c-0.01-0.06-0.03-0.09-0.06-0.08l-0.81,0.14c-0.03,0.01-0.05,0.04-0.05,0.09
						c-0.01,0.04,0,0.16,0.01,0.38c0.01,0.21,0.01,0.48,0,0.81L49.8,14.68z"/>
				</g>
				<g>
					<path class="st1" d="M45.62,13.87c0.08,0.56,0.25,0.99,0.51,1.28c0.26,0.3,0.57,0.41,0.92,0.33c0.27-0.06,0.52-0.22,0.76-0.48
						c0.24-0.26,0.4-0.66,0.49-1.2c0,0.09-0.01,0.19-0.01,0.31c0,0.12,0.02,0.48,0.28,0.72c0.2,0.19,0.68,0.12,0.68,0.12
						c0.04-0.01,0.07-0.05,0.07-0.11c0-0.04-0.04-0.25-0.06-0.47c-0.02-0.23-0.02-0.54,0-0.93l0.16-3.71c0.01-0.04,0-0.06-0.02-0.08
						c-0.02-0.01-0.04-0.02-0.06-0.02L48.42,9.8c-0.05,0.01-0.07,0.05-0.07,0.12l-0.01,0.96c-0.03-0.16-0.07-0.31-0.13-0.45
						c-0.06-0.14-0.13-0.26-0.22-0.36c-0.09-0.1-0.2-0.17-0.32-0.22c-0.12-0.05-0.26-0.06-0.41-0.03c-0.33,0.06-0.61,0.22-0.84,0.49
						c-0.23,0.28-0.42,0.61-0.55,1c-0.14,0.39-0.22,0.81-0.27,1.27C45.56,13.01,45.57,13.45,45.62,13.87z M46.74,12.77
						c0.01-0.3,0.04-0.59,0.09-0.88c0.06-0.28,0.14-0.53,0.26-0.75c0.11-0.21,0.26-0.34,0.44-0.37c0.18-0.03,0.33,0.01,0.44,0.14
						c0.11,0.12,0.19,0.32,0.23,0.59c0.03,0.21,0.04,0.45,0.03,0.7l-0.01,0.35c-0.02,0.6-0.1,1.04-0.26,1.32
						c-0.15,0.28-0.33,0.44-0.54,0.48c-0.17,0.03-0.3-0.02-0.42-0.17c-0.11-0.15-0.19-0.36-0.23-0.64
						C46.74,13.33,46.73,13.07,46.74,12.77z"/>
				</g>
				<g>
					<path class="st1" d="M42.56,16.16c0,0.07,0.02,0.1,0.07,0.09l1.04-0.21c0.01,0,0.03-0.02,0.05-0.04
						c0.02-0.03,0.03-0.05,0.02-0.07l0.1-2.37c0.03-0.64,0.11-1.12,0.24-1.43c0.13-0.31,0.28-0.47,0.45-0.5
						c0.09-0.02,0.15-0.01,0.19,0.03c0.04,0.03,0.07,0.07,0.1,0.11c0.03,0.04,0.07,0.08,0.11,0.11c0.04,0.03,0.11,0.04,0.2,0.02
						c0.09-0.02,0.16-0.06,0.23-0.13c0.07-0.07,0.12-0.16,0.16-0.27c0.04-0.11,0.07-0.22,0.09-0.35c0.02-0.12,0.02-0.25,0-0.38
						c-0.02-0.19-0.09-0.34-0.19-0.45c-0.11-0.11-0.25-0.15-0.44-0.12c-0.28,0.05-0.53,0.25-0.75,0.6c-0.22,0.35-0.4,0.81-0.51,1.36
						c0.01-0.12,0.01-0.25,0.01-0.39c0-0.14,0.01-0.28,0-0.41c0-0.13,0-0.26-0.01-0.37c0-0.11-0.01-0.2-0.02-0.28
						c0-0.02-0.01-0.04-0.02-0.06c-0.01-0.02-0.03-0.03-0.05-0.02l-0.87,0.15c-0.02,0-0.03,0.02-0.04,0.04
						c0,0.02-0.01,0.05-0.01,0.07c-0.01,0.04,0,0.17,0.01,0.38c0.01,0.21,0.01,0.49,0,0.84L42.56,16.16z"/>
				</g>
				<g>
					<path class="st1" d="M33.21,16.03c0.05,0.31,0.13,0.59,0.24,0.85c0.11,0.26,0.26,0.47,0.44,0.64c0.18,0.17,0.39,0.29,0.63,0.36
						c0.24,0.07,0.51,0.08,0.81,0.01c0.46-0.09,0.84-0.29,1.15-0.6c0.31-0.3,0.55-0.65,0.73-1.05c0.18-0.4,0.29-0.83,0.34-1.28
						c0.05-0.45,0.05-0.87-0.01-1.26c-0.05-0.3-0.12-0.58-0.23-0.83c-0.11-0.25-0.25-0.46-0.42-0.64c-0.17-0.18-0.37-0.3-0.6-0.38
						c-0.23-0.08-0.5-0.09-0.79-0.04c-0.46,0.08-0.85,0.27-1.16,0.57c-0.32,0.3-0.58,0.65-0.76,1.06c-0.18,0.41-0.31,0.84-0.37,1.3
						C33.15,15.2,33.15,15.63,33.21,16.03z M34.52,15.07c0.01-0.33,0.06-0.65,0.13-0.94c0.07-0.3,0.18-0.56,0.32-0.79
						c0.14-0.23,0.31-0.36,0.53-0.39c0.21-0.04,0.37,0.03,0.49,0.19c0.12,0.16,0.21,0.39,0.25,0.69c0.04,0.27,0.05,0.57,0.03,0.9
						c-0.02,0.33-0.06,0.64-0.14,0.93c-0.07,0.29-0.18,0.54-0.31,0.75c-0.13,0.21-0.3,0.33-0.5,0.37c-0.21,0.04-0.39-0.01-0.52-0.17
						c-0.13-0.16-0.21-0.38-0.25-0.67C34.52,15.69,34.5,15.4,34.52,15.07z"/>
				</g>
				<g>
					<path class="st1" d="M23.78,20l0.05-1.1c0.01-0.05,0-0.08-0.03-0.09c-0.02-0.01-0.05,0-0.09,0.03
						c-0.13,0.1-0.25,0.16-0.38,0.19c-0.23,0.05-0.4,0.01-0.51-0.1c-0.1-0.12-0.15-0.34-0.13-0.66c0,0,0.09-1.78,0.17-3.53
						c1.88-0.59,4.91-2.3,4.69-5.61c-0.23-3.51-3.2-5.55-7.61-5.41c-4.28,0.13-7.46,3.41-6.63,7.76c0.61,3.19,1.96,4.52,3.82,6.58
						c1.83,2.02,3.86,4.19,3.92,5.5c0.06,1.31-0.79,1.84-1.75,1.78c-1.64-0.11-3.84-1.9-3.84-1.9l0.11,2.52c0,0,2.3,0.93,3.9,0.78
						c1.86-0.17,3.09-1.2,3-3.08c-0.1-2-2.51-4.48-4.05-6.49c-1.54-2.01-2.56-3.79-2.85-5.85c-0.5-3.47,0.68-6.29,4.64-6.53
						c3.02-0.18,4.99,1.77,5.32,4.51c0.31,2.58-1.01,4.14-2.63,4.75c0.07-1.35,0.13-2.52,0.13-2.64c0-0.08-0.03-0.12-0.09-0.11
						l-1.32,0.21c-0.06,0.01-0.09,0.06-0.09,0.14c0,0.05-0.06,1.29-0.13,2.7c-0.7,0.03-1.29-0.07-1.29-0.07l-0.1,0.67
						c0,0,0.7,0.07,1.36,0.06c-0.08,1.71-0.16,3.44-0.16,3.44c-0.04,0.76,0.1,1.31,0.41,1.65c0.31,0.34,0.73,0.45,1.27,0.34
						c0.23-0.05,0.49-0.14,0.78-0.27C23.73,20.12,23.76,20.07,23.78,20z"/>
				</g>
				<g>
					<path class="st1" d="M63.88,16.75c-0.03-0.19-0.09-0.37-0.18-0.53c-0.29-0.53-0.9-1.09-1.65-1.53
						c-0.01-0.05-0.02-0.11-0.03-0.16c-0.12-1.12-0.08-2.63-0.04-3.91c0-0.01,0.01-0.02,0.01-0.03l0.05-1.33
						c0.01-0.18,0.01-0.33,0-0.46c-0.01-0.13-0.02-0.27-0.04-0.41C61.96,8,61.85,7.74,61.68,7.59c-0.17-0.15-0.37-0.21-0.58-0.17
						c-0.27,0.05-0.52,0.22-0.75,0.51c-0.23,0.3-0.4,0.7-0.51,1.2c0-0.11,0.01-0.23,0.01-0.35c0-0.13,0.01-0.25,0.01-0.36
						c0-0.11,0-0.22,0-0.31c0-0.09-0.01-0.16-0.01-0.2c-0.01-0.06-0.03-0.09-0.06-0.08l-0.72,0.12c-0.04,0.01-0.05,0.04-0.04,0.09
						c0,0.03,0,0.15,0,0.36c0.01,0.2,0.01,0.45-0.01,0.76l-0.13,3.66c-0.01,0.04,0,0.06,0.02,0.07c0.02,0.01,0.03,0.01,0.04,0.01
						l0.86-0.17c0.02,0,0.03-0.02,0.04-0.04c0.01-0.02,0.02-0.04,0.01-0.06l0.08-2.07c0.02-0.62,0.11-1.1,0.25-1.45
						c0.15-0.35,0.31-0.54,0.51-0.57c0.09-0.02,0.17,0.01,0.24,0.08c0.07,0.07,0.11,0.18,0.13,0.35c0,0,0,0.01,0,0.01
						c-0.01,1.48-0.17,3.35,0.09,5.4c-0.64-0.18-1.27-0.15-2.06-0.05c-0.06,0-0.11,0.02-0.16,0.02c-0.7,0.12-10.66,2.42-19.83,4.54
						c0.02-0.57,0.05-1.12,0.06-1.38c0.02-0.58,0.02-1.14,0.02-1.69c0.03,0.17,0.07,0.33,0.14,0.47c0.07,0.14,0.15,0.26,0.24,0.36
						c0.09,0.1,0.21,0.16,0.34,0.21c0.13,0.04,0.28,0.05,0.44,0.01c0.35-0.07,0.65-0.25,0.9-0.55c0.25-0.29,0.44-0.64,0.59-1.05
						c0.14-0.41,0.24-0.84,0.28-1.31c0.04-0.47,0.03-0.91-0.03-1.34c-0.08-0.57-0.25-1.01-0.53-1.31c-0.28-0.3-0.61-0.42-0.99-0.35
						c-0.33,0.06-0.61,0.23-0.86,0.52c-0.24,0.29-0.42,0.7-0.51,1.24c0.01-0.23,0.01-0.47,0.01-0.71c-0.01-0.24-0.02-0.41-0.03-0.5
						c-0.01-0.07-0.04-0.1-0.07-0.09l-0.91,0.16c-0.05,0.01-0.07,0.05-0.07,0.11c-0.01,0.05,0,0.19,0.01,0.44
						c0.02,0.24,0.01,0.57-0.01,0.99l-0.26,6.06c-7.58,1.76-14.44,3.36-14.44,3.36s0.26,0.67,0.28,1.21
						c0.03,0.65-0.12,1.16-0.12,1.16s32.49-9.02,35.84-9.97c0.62-0.17,1.24-0.15,1.89,0.06c0.18,0.38,0.32,0.69,0.5,0.98
						c0.41,0.67,0.99,1.14,1.52,1.32C63.71,17.41,63.95,17.16,63.88,16.75z M39.37,14.03c0.02-0.63,0.11-1.1,0.28-1.4
						c0.16-0.3,0.35-0.47,0.58-0.51c0.18-0.03,0.33,0.03,0.46,0.18c0.12,0.15,0.21,0.37,0.25,0.66c0.03,0.22,0.04,0.49,0.03,0.8
						c-0.01,0.31-0.04,0.62-0.1,0.91c-0.06,0.3-0.15,0.56-0.27,0.79c-0.12,0.22-0.28,0.36-0.47,0.4c-0.41,0.08-0.65-0.16-0.72-0.71
						c-0.03-0.22-0.04-0.46-0.03-0.73L39.37,14.03z M63.2,16.7c-0.25-0.12-0.39-0.24-0.61-0.56c-0.15-0.21-0.3-0.48-0.39-0.81
						c0.3,0.15,0.62,0.44,0.91,0.8c0.1,0.12,0.17,0.23,0.25,0.4C63.41,16.67,63.37,16.79,63.2,16.7z"/>
				</g>
				<g>
					<path class="st1" d="M27.21,13.68c-0.11-0.11-0.25-0.19-0.4-0.24c-0.15-0.05-0.33-0.06-0.52-0.03
						c-0.41,0.07-0.77,0.26-1.06,0.58c-0.3,0.32-0.53,0.7-0.7,1.14c-0.17,0.44-0.28,0.92-0.34,1.43c-0.05,0.51-0.04,1,0.03,1.46
						c0.1,0.62,0.31,1.1,0.64,1.43c0.33,0.33,0.71,0.44,1.16,0.35c0.34-0.07,0.66-0.26,0.96-0.56c0.3-0.31,0.51-0.76,0.62-1.36
						c0,0.1-0.01,0.21-0.01,0.35c0,0.13,0.02,0.53,0.35,0.8c0.25,0.21,0.85,0.12,0.85,0.12c0.05-0.01,0.08-0.05,0.08-0.13
						c0.01-0.05-0.05-0.27-0.08-0.53c-0.03-0.26-0.03-0.61,0-1.05l0.2-4.16c0.01-0.04,0-0.07-0.02-0.09
						c-0.02-0.01-0.05-0.02-0.07-0.02l-1.17,0.2c-0.06,0.01-0.08,0.06-0.08,0.14l-0.01,1.07c-0.04-0.18-0.09-0.35-0.16-0.51
						C27.42,13.93,27.33,13.79,27.21,13.68z M27.49,16.49c-0.02,0.67-0.13,1.17-0.32,1.48c-0.19,0.32-0.42,0.5-0.68,0.56
						c-0.21,0.04-0.39-0.02-0.53-0.18c-0.14-0.16-0.24-0.4-0.29-0.71c-0.04-0.24-0.06-0.53-0.05-0.87c0.01-0.34,0.05-0.67,0.12-0.99
						c0.07-0.32,0.18-0.6,0.32-0.84c0.14-0.24,0.33-0.38,0.55-0.43c0.23-0.04,0.41,0.01,0.56,0.15c0.15,0.14,0.24,0.35,0.29,0.66
						c0.03,0.24,0.05,0.5,0.04,0.78L27.49,16.49z"/>
				</g>
				<g>
					<path class="st1" d="M29.71,18.78c0,0.07,0.02,0.1,0.08,0.09l1.2-0.24c0.01,0,0.03-0.02,0.06-0.05
						c0.02-0.03,0.03-0.05,0.03-0.08l0.12-2.55c0.03-0.69,0.12-1.2,0.28-1.53c0.15-0.33,0.32-0.51,0.51-0.55
						c0.1-0.02,0.17-0.01,0.21,0.03c0.04,0.04,0.08,0.08,0.12,0.12c0.04,0.05,0.08,0.08,0.12,0.12c0.05,0.03,0.12,0.04,0.23,0.02
						c0.1-0.02,0.19-0.07,0.26-0.14c0.08-0.08,0.14-0.17,0.19-0.29c0.05-0.12,0.08-0.24,0.1-0.37c0.02-0.13,0.02-0.27,0-0.41
						c-0.03-0.2-0.1-0.36-0.22-0.48c-0.12-0.12-0.29-0.16-0.51-0.12c-0.32,0.05-0.61,0.27-0.87,0.65c-0.26,0.38-0.46,0.87-0.59,1.47
						c0-0.13,0.01-0.27,0.02-0.42c0-0.15,0.01-0.3,0-0.44c0-0.14-0.01-0.27-0.01-0.39c-0.01-0.12-0.01-0.22-0.02-0.3
						c-0.01-0.02-0.01-0.05-0.03-0.07c-0.01-0.02-0.03-0.03-0.05-0.03l-1,0.17c-0.02,0-0.04,0.02-0.05,0.04
						c-0.01,0.03-0.01,0.05-0.01,0.07c-0.01,0.04-0.01,0.18,0.01,0.41c0.01,0.23,0.01,0.53,0,0.9L29.71,18.78z"/>
				</g>
			</g>
			<g>
				<path class="st1" d="M62.89,5.9c0.39,0,0.68,0.3,0.68,0.68c0,0.39-0.3,0.69-0.69,0.69c-0.39,0-0.7-0.3-0.7-0.69
					C62.19,6.2,62.5,5.9,62.89,5.9L62.89,5.9z M62.88,6.03c-0.31,0-0.54,0.25-0.54,0.56c0,0.32,0.24,0.57,0.55,0.57
					c0.3,0,0.54-0.25,0.54-0.56C63.43,6.28,63.2,6.03,62.88,6.03L62.88,6.03z M62.76,6.97h-0.13V6.25c0.07-0.01,0.15-0.02,0.25-0.02
					c0.12,0,0.18,0.02,0.22,0.06c0.04,0.03,0.07,0.09,0.07,0.15c0,0.09-0.07,0.14-0.14,0.17v0.01c0.06,0.03,0.09,0.08,0.11,0.18
					c0.02,0.11,0.04,0.15,0.06,0.18h-0.14c-0.02-0.03-0.04-0.09-0.06-0.18C63,6.7,62.95,6.66,62.85,6.66h-0.09V6.97z M62.76,6.56
					h0.09c0.09,0,0.19-0.03,0.19-0.11c0-0.07-0.05-0.12-0.17-0.12c-0.05,0-0.08,0-0.1,0.01V6.56z"/>
			</g>
		</g>
		<path class="st1" d="M54.26,18.14l-26.54,7.37c-0.26,0.07-0.47,0.13-0.64,0.18v14.57c0,1.69,1.37,3.06,3.06,3.06h21.69
			c1.69,0,3.06-1.37,3.06-3.06V17.96C54.7,18.02,54.48,18.08,54.26,18.14z M54.26,40.25c0,1.34-1.08,2.42-2.42,2.42H30.14
			c-1.34,0-2.42-1.08-2.42-2.42V26.19l26.54-7.37V40.25z"/>
		<g>
			<path class="st1" d="M31.67,29.85c0.28-0.32,1.33-0.67,1.33-0.67s-1.05-0.34-1.33-0.67c-0.28,0.32-1.33,0.67-1.33,0.67
				S31.39,29.53,31.67,29.85z"/>
			<path class="st1" d="M49.99,29.85c0.28-0.32,1.33-0.67,1.33-0.67s-1.05-0.34-1.33-0.67c-0.28,0.32-1.33,0.67-1.33,0.67
				S49.7,29.53,49.99,29.85z"/>
			<g>
				<path class="st1" d="M36.53,32.28l-1.11-4.06l0.03,4.06h-1.17v-0.81h0.32v-5.05h-0.32V25.6h1.25l1.02,3.84l-0.04-3.84h1.18v0.84
					h-0.32v5.83H36.53z"/>
				<path class="st1" d="M40.1,32.28l-0.16-1.58h-0.68l-0.17,1.58h-1.16v-0.81h0.35l0.77-5.86h1.11l0.75,5.86h0.35v0.81H40.1z
					 M39.37,29.82h0.44l-0.21-2.17L39.37,29.82z"/>
				<path class="st1" d="M41.74,30.65h0.87v0.82h0.47c0.22,0,0.29-0.07,0.29-0.33v-1.4c0-0.36-0.01-0.37-0.4-0.37h-0.32
					c-0.57,0-0.91-0.35-0.91-0.94v-1.91c0-0.26,0.09-0.49,0.24-0.67c0.17-0.18,0.35-0.24,0.69-0.24h1.49v1.6h-0.87v-0.79h-0.36
					c-0.25,0-0.31,0.06-0.31,0.33v1.39c0,0.28,0.06,0.34,0.31,0.34h0.48c0.25,0,0.46,0.09,0.62,0.26c0.17,0.19,0.22,0.36,0.22,0.73
					v1.94c0,0.26-0.11,0.5-0.29,0.67c-0.18,0.16-0.33,0.2-0.72,0.2h-1.49V30.65z M42.65,24.27l0.37,0.53l0.37-0.53h0.65l-0.7,1.07
					h-0.65L42,24.27H42.65z"/>
				<path class="st1" d="M44.76,32.28v-0.81h0.32v-5.05h-0.32V25.6h2.74v1.72h-0.87v-0.91h-0.67v2.07H47v0.82h-1.05v2.16h0.71v-0.95
					h0.87v1.76H44.76z"/>
				<path class="st1" d="M31.35,40.58v-2.94h-0.73v2.94h-1.19v-0.81h0.32v-5.05h-0.32V33.9h1.19v2.91h0.73V33.9h1.18v0.81h-0.32
					v5.05h0.32v0.81H31.35z"/>
				<path class="st1" d="M35.72,39.77c0,0.49-0.34,0.84-0.82,0.84h-0.98c-0.5,0-0.83-0.34-0.83-0.88v-4.9c0-0.6,0.32-0.95,0.87-0.95
					h0.91c0.49,0,0.83,0.36,0.83,0.9V39.77z M34.3,34.68c-0.26,0-0.33,0.08-0.33,0.35v4.39c0,0.29,0.05,0.37,0.23,0.37h0.35
					c0.23,0,0.29-0.07,0.29-0.35v-4.41c0-0.26-0.09-0.35-0.31-0.35H34.3z"/>
				<path class="st1" d="M36.32,38.95h0.87v0.82h0.47c0.22,0,0.29-0.07,0.29-0.33v-1.4c0-0.36-0.01-0.37-0.4-0.37h-0.32
					c-0.57,0-0.91-0.35-0.91-0.94v-1.91c0-0.26,0.09-0.49,0.24-0.67c0.17-0.18,0.35-0.24,0.69-0.24h1.49v1.6h-0.87v-0.79h-0.36
					c-0.25,0-0.31,0.06-0.31,0.33v1.39c0,0.28,0.06,0.34,0.31,0.34h0.48c0.25,0,0.46,0.09,0.62,0.26c0.17,0.19,0.22,0.36,0.22,0.73
					v1.94c0,0.26-0.11,0.5-0.29,0.67c-0.18,0.16-0.33,0.2-0.72,0.2h-1.49V38.95z"/>
				<path class="st1" d="M40.53,39.77h0.33v0.81h-1.52v-0.81h0.32v-5.05h-0.32V33.9h1.86c0.55,0,0.89,0.33,0.89,0.86v1.92
					c0,0.54-0.36,0.91-0.88,0.91h-0.68V39.77z M40.82,36.78c0.32,0,0.4-0.06,0.4-0.34v-1.35c0-0.3-0.06-0.37-0.3-0.37h-0.39v2.06
					H40.82z"/>
				<path class="st1" d="M45.28,39.77c0,0.49-0.34,0.84-0.82,0.84h-0.98c-0.5,0-0.83-0.34-0.83-0.88v-4.9c0-0.6,0.32-0.95,0.87-0.95
					h0.91c0.49,0,0.83,0.36,0.83,0.9V39.77z M43.86,34.68c-0.26,0-0.33,0.08-0.33,0.35v4.39c0,0.29,0.05,0.37,0.23,0.37h0.35
					c0.23,0,0.29-0.07,0.29-0.35v-4.41c0-0.26-0.09-0.35-0.31-0.35H43.86z"/>
				<path class="st1" d="M45.83,39.77h0.32v-5.05h-0.32V33.9h2c0.49,0,0.83,0.38,0.83,0.92v4.85c0,0.56-0.33,0.9-0.89,0.9h-1.94
					V39.77z M47.47,39.77c0.27,0,0.32-0.06,0.32-0.37V35.1c0-0.3-0.07-0.39-0.3-0.39h-0.47v5.05H47.47z"/>
				<path class="st1" d="M51.36,40.58L51.19,39h-0.68l-0.17,1.58h-1.16v-0.81h0.35l0.77-5.86h1.11l0.75,5.86h0.35v0.81H51.36z
					 M50.63,38.13h0.44l-0.21-2.17L50.63,38.13z"/>
			</g>
		</g>
	</g>
	<text transform="matrix(0.9909 -0.1348 0.1348 0.9909 14.309 58.9402)" class="st1 st2 st3">Machnác</text>
	<g>
		<path class="st1" d="M60.86,40.93c-0.01-0.07,0-0.13,0.05-0.16c0.04-0.02,0.13-0.03,0.26-0.03c0.67,0.01,1.31-0.18,1.92-0.56
			c0.39-0.25,0.41-0.32,0.45-0.35c0.06-0.04,0.1-0.03,0.13,0.02c0.04,0.07,0.08,0.23,0.11,0.49c0.13,0.58,0.05,0.73-0.45,1.04
			c-0.57,0.36-1.07,0.51-1.98,0.36c-0.2-0.02-0.31-0.07-0.35-0.13C60.95,41.52,60.94,41.26,60.86,40.93z"/>
	</g>
</g>
<g id="Vrstva_2">
</g>
</svg>
